<?xml version="1.0" encoding="UTF-8"?>
<!DOCTYPE svg PUBLIC "-//W3C//DTD SVG 1.1//EN" "http://www.w3.org/Graphics/SVG/1.1/DTD/svg11.dtd">
<!-- Creator: CorelDRAW X7 -->
<svg xmlns="http://www.w3.org/2000/svg" xml:space="preserve" width="25px" height="25px" version="1.1" style="shape-rendering:geometricPrecision; text-rendering:geometricPrecision; image-rendering:optimizeQuality; fill-rule:evenodd; clip-rule:evenodd"
viewBox="0 0 3333 3333"
 xmlns:xlink="http://www.w3.org/1999/xlink">
 <defs>
  <style type="text/css">
   <![CDATA[
    .fil0 {fill:#FEFEFE}
   ]]>
  </style>
 </defs>
 <g id="Layer_x0020_1">
  <metadata id="CorelCorpID_0Corel-Layer"/>
  <path class="fil0" d="M102 1309l0 -357 995 0 0 -776 462 0c330,0 620,60 871,179 250,120 446,290 587,510 141,219 211,481 211,785 0,307 -70,571 -211,793 -141,221 -337,391 -587,511 -251,119 -541,179 -871,179l-419 0 0 -601 -1038 -1223zm997 1047l418 0c141,0 264,-27 370,-80 105,-54 188,-133 247,-239 59,-106 89,-235 89,-387 0,-149 -30,-276 -89,-380 -59,-104 -142,-183 -247,-236 -106,-54 -229,-81 -370,-81l-418 0 0 1403z"/>
 </g>
</svg>
